<svg width="201" height="174" xmlns="http://www.w3.org/2000/svg">

 <g id="imagebot_1">
  <path transform="matrix(1 0 0 1 0.88 0.54)" fill-rule="evenodd" clip-rule="evenodd" stroke-width="0.036" stroke="#000" stroke-miterlimit="10" id="imagebot_3" d="M 179.76 58.05 C 181.092 51.858 180.516 45.882 178.428 39.69 C 176.305 33.426 173.533 26.874 166.764 21.15 C 159.744 15.318 147.614 9.09 137.03 5.526 C 126.374 1.998 115.61 0.306 103.333 0.018 C 90.83 -0.522 75.746 -0.018 63.47 3.33 C 51.05 6.75 38.378 13.662 30.17 20.322 C 21.998 26.802 17.066 34.686 14.942 42.462 C 12.818 50.202 13.43 57.942 17.174 66.258 C 16.85 69.282 15.41 70.938 12.71 71.37 C 9.866 71.622 2.954 67.878 1.01 68.49 C -0.862 69.21 0.074 73.818 1.442 75.366 C 2.666 76.842 5.042 77.418 8.57 77.238 C 6.014 78.606 4.682 79.938 4.574 81.234 C 4.43 82.53 5.51 83.682 7.814 84.834 L 0.866 94.051 L 1.37 99.018 C 3.602 98.766 5.762 98.659 8.246 98.983 C 10.622 99.163 13.142 99.774 15.806 100.53 C 13.646 103.411 12.314 106.219 11.954 108.954 C 11.522 111.69 12.026 114.14 13.466 116.694 C 12.89 123.067 13.718 128.61 15.662 133.723 C 17.57 138.655 18.29 141.534 25.31 146.789 C 32.366 152.01 44.966 160.289 57.566 164.826 C 70.022 169.289 83.81 173.754 99.902 173.07 C 115.993 172.062 140.618 167.345 153.218 159.75 C 165.603 152.045 172.406 141.785 173.917 127.998 L 177.554 126.018 C 179.894 122.491 181.081 118.926 181.515 115.327 C 181.874 111.618 181.226 108.018 179.714 104.239 C 179.931 102.223 180.146 99.811 180.073 97.003 C 180.001 94.052 179.786 90.884 179.427 87.067 C 181.37 87.211 183.638 87.606 185.833 88.542 C 188.065 89.407 190.515 93.079 192.89 92.323 C 195.302 91.35 199.658 87.895 199.837 83.503 C 199.837 79.111 196.382 70.615 193.069 66.367 C 189.679 62.117 185.289 59.345 179.749 58.049 L 179.76 58.05 Z"/>
  <path transform="matrix(1 0 0 1 0.88 0.54)" fill-rule="evenodd" clip-rule="evenodd" stroke-width="0.036" stroke="#000" stroke-miterlimit="10" id="imagebot_4" fill="#C6902C" d="M 176.95 60.966 C 174.97 68.994 169.786 75.33 160.714 80.37 C 151.462 85.23 137.206 88.866 122.806 90.307 C 108.261 91.53 89.938 90.522 75.178 88.651 C 60.49 86.707 45.046 84.439 35.218 79.362 C 25.215 74.178 18.231 66.33 16.071 58.158 C 13.911 49.842 16.431 39.006 22.803 30.654 C 29.247 22.266 42.711 13.338 54.051 8.586 C 65.355 3.798 78.459 3.114 89.475 2.358 C 100.239 1.53 108.411 2.07 118.418 3.834 C 128.318 5.49 139.406 7.758 148.479 12.582 C 157.514 17.298 166.948 24.39 171.915 32.49 C 176.665 40.662 178.715 52.794 176.955 60.966 L 176.95 60.966 Z"/>
  <path transform="matrix(1 0 0 1 0.88 0.54)" fill-rule="evenodd" clip-rule="evenodd" stroke-width="0.036" stroke="#000" stroke-miterlimit="10" id="imagebot_5" fill="#00C200" d="M 180.04 59.994 C 183.532 60.894 186.52 62.694 189.292 65.79 C 191.919 68.742 195.411 73.962 196.312 77.994 C 197.175 81.918 195.773 87.643 194.583 89.334 C 193.251 90.811 191.524 88.578 188.571 87.498 C 185.403 86.31 180.399 84.186 176.188 83.07 C 171.868 81.954 167.764 81.234 163.334 80.91 C 166.611 80.154 169.6 77.922 172.443 74.502 C 175.213 70.902 177.703 66.258 180.033 59.994 L 180.04 59.994 Z"/>
  <path transform="matrix(1 0 0 1 0.88 0.54)" fill-rule="evenodd" clip-rule="evenodd" stroke-width="0.036" stroke="#000" stroke-miterlimit="10" id="imagebot_6" fill="#ffffff" d="M 152.29 103.23 C 149.194 104.201 146.745 106.613 144.657 110.861 C 142.534 115.109 141.022 120.654 139.977 128.177 C 139.508 126.773 137.061 124.864 132.633 122.452 C 128.096 119.97 121.725 117.016 113.229 113.452 C 114.129 112.013 115.137 111.184 116.793 110.97 C 118.34 110.718 120.824 112.409 122.445 112.013 C 124.029 111.402 125.109 110.249 126.08 108.017 C 127.557 109.638 128.961 110.394 130.58 110.142 C 132.092 109.89 133.82 106.613 135.332 106.578 C 136.701 106.471 137.924 107.369 139.004 109.422 C 139.797 105.75 141.309 103.41 143.541 102.402 C 145.741 101.322 148.651 101.652 152.291 103.232 L 152.29 103.23 Z"/>
  <path transform="matrix(1 0 0 1 0.88 0.54)" fill-rule="evenodd" clip-rule="evenodd" stroke-width="0.036" stroke="#000" stroke-miterlimit="10" id="imagebot_7" fill="#5f00bf" d="M 112.44 114.17 C 115.678 115.502 118.667 116.799 121.403 118.059 C 124.067 119.139 125.758 119.786 128.856 121.514 C 131.987 123.243 135.586 125.547 139.944 128.571 L 139.368 132.35 C 135.12 129.002 130.692 126.194 126.083 123.639 C 121.403 121.047 116.544 118.994 111.503 117.194 C 111.793 116.184 112.113 115.174 112.443 114.164 L 112.44 114.17 Z"/>
  <path transform="matrix(1 0 0 1 0.88 0.54)" fill-rule="evenodd" clip-rule="evenodd" stroke-width="0.036" stroke="#000" stroke-miterlimit="10" id="imagebot_8" fill="#ffffff" d="M 2.421 93.727 L 8.865 86.814 C 11.457 88.83 13.689 89.91 15.561 90.197 C 17.253 90.342 18.513 88.037 19.881 88.146 C 21.285 88.146 22.185 90.917 23.949 90.628 C 25.569 90.196 28.701 86.129 29.889 86.345 C 31.005 86.525 31.293 88.54 30.753 92.105 C 31.437 93.544 31.833 94.589 32.085 95.634 C 32.229 96.57 32.193 97.325 31.977 97.902 C 28.269 96.533 23.985 95.597 19.125 94.949 C 14.193 94.338 8.793 94.013 2.781 94.121 L 2.421 93.727 Z"/>
  <path transform="matrix(1 0 0 1 0.88 0.54)" fill-rule="evenodd" clip-rule="evenodd" stroke-width="0.036" stroke="#000" stroke-miterlimit="10" id="imagebot_9" fill="#5f00bf" d="M 33.021 99.486 C 30.393 98.334 26.505 97.326 21.357 96.605 C 16.137 95.777 9.729 95.238 1.989 94.841 L 2.637 97.181 C 5.373 97.47 8.397 97.829 11.709 98.406 C 14.985 98.838 18.513 99.521 22.293 100.457 C 26.001 101.285 29.637 102.365 33.597 103.697 C 33.417 102.287 33.237 100.887 33.021 99.483 L 33.021 99.486 Z"/>
  <path transform="matrix(1 0 0 1 0.88 0.54)" fill-rule="evenodd" clip-rule="evenodd" stroke-width="0.036" stroke="#000" stroke-miterlimit="10" id="imagebot_10" fill="#00C200" d="M 33.165 81.918 C 32.625 84.726 32.733 87.785 33.093 91.098 C 33.489 94.338 34.281 98.369 35.613 101.537 C 36.909 104.67 37.053 107.803 40.905 109.818 C 44.685 111.654 52.569 116.226 58.293 112.986 C 63.909 109.601 69.129 102.113 74.349 90.125 C 68.481 89.803 62.289 88.975 55.377 87.643 C 48.429 86.234 41.157 84.326 33.165 81.914 L 33.165 81.918 Z"/>
  <path transform="matrix(1 0 0 1 0.88 0.54)" fill-rule="evenodd" clip-rule="evenodd" stroke-width="0.036" stroke="#000" stroke-miterlimit="10" id="imagebot_11" fill="#f00" d="M 18.441 101.43 C 21.465 101.719 24.309 102.293 27.117 103.014 C 29.925 103.662 32.409 104.598 35.001 105.678 C 35.469 107.946 36.729 109.926 38.925 111.617 C 41.013 113.166 44.865 114.785 47.853 115.506 C 50.769 116.227 53.469 117.018 56.637 115.938 C 59.697 114.715 63.045 112.266 66.537 108.45 C 68.877 108.63 71.253 108.667 73.809 108.415 C 76.293 108.163 78.813 107.659 81.513 106.903 C 80.505 109.495 80.829 111.223 82.773 111.942 C 84.681 112.663 87.957 112.446 92.745 111.294 L 91.557 119.61 C 86.121 122.526 79.929 124.327 72.585 125.155 C 65.133 125.983 56.925 128.106 47.817 124.29 C 38.709 120.27 29.061 112.78 18.441 101.44 L 18.441 101.43 Z"/>
  <path transform="matrix(1 0 0 1 0.88 0.54)" fill-rule="evenodd" clip-rule="evenodd" stroke-width="0.036" stroke="#000" stroke-miterlimit="10" id="imagebot_12" fill="#f00" d="M 100.84 116.66 C 103.036 119.396 106.564 121.736 111.568 123.68 C 116.537 125.623 122.728 126.955 130.433 128.073 C 125.861 125.913 121.755 123.969 118.12 122.096 C 114.411 120.188 111.243 118.604 108.472 117.057 L 104.189 110.721 C 103.069 112.711 101.949 114.691 100.829 116.671 L 100.84 116.66 Z"/>
  <path transform="matrix(1 0 0 1 0.88 0.54)" fill-rule="evenodd" clip-rule="evenodd" stroke-width="0.036" stroke="#000" stroke-miterlimit="10" id="imagebot_13" fill="#80FF00" d="M 111.64 107.26 C 110.273 102.112 108.869 96.965 107.464 91.817 C 99.832 92.069 93.604 92.069 88.348 91.96 C 83.092 91.78 79.096 91.456 76.216 90.989 C 72.724 96.749 70.6 100.96 69.844 103.624 S 69.988 106.325 71.572 106.792 C 73.048 107.153 75.82 106.505 78.484 105.966 C 81.04 105.353 83.632 104.525 86.656 103.337 C 84.28 105.569 83.092 107.333 82.948 108.485 C 82.84 109.528 83.92 109.96 85.9 110.176 C 87.772 110.356 90.58 110.248 94.324 109.852 C 93.784 113.127 93.748 115.36 94.36 116.692 S 96.232 119.356 97.744 117.628 C 99.076 115.722 100.732 111.868 102.568 105.677 C 105.881 110.214 108.293 112.624 109.804 112.913 C 111.324 113.123 111.934 111.283 111.644 107.253 L 111.64 107.26 Z"/>
  <path transform="matrix(1 0 0 1 0.88 0.54)" fill-rule="evenodd" clip-rule="evenodd" stroke-width="0.036" stroke="#000" stroke-miterlimit="10" id="imagebot_14" fill="#f00" d="M 143.58 124.54 C 146.029 123.894 148.621 122.886 151.752 121.517 C 154.813 120.078 158.16 118.386 161.941 116.298 C 160.537 110.825 159.564 107.73 158.628 106.612 C 157.692 105.532 157.368 110.249 156.54 109.925 C 155.64 109.529 154.632 107.693 153.372 104.417 C 150.347 106.397 148.188 109.134 146.495 112.481 C 144.845 115.911 143.875 119.801 143.585 124.551 L 143.58 124.54 Z"/>
  <path transform="matrix(1 0 0 1 0.88 0.54)" fill-rule="evenodd" clip-rule="evenodd" stroke-width="0.036" stroke="#000" stroke-miterlimit="10" id="imagebot_15" fill="#f00" d="M 177.78 90.018 L 172.163 95.454 C 172.235 98.552 172.739 101.071 173.28 103.159 C 173.926 105.247 174.612 106.723 175.727 107.874 L 178.571 104.563 C 178.321 99.731 178.061 94.87 177.781 90.011 L 177.78 90.018 Z"/>
  <path transform="matrix(1 0 0 1 0.88 0.54)" fill-rule="evenodd" clip-rule="evenodd" stroke-width="0.036" stroke="#000" stroke-miterlimit="10" id="imagebot_16" fill="#f00" d="M 173.35 109.24 C 172.844 107.619 171.873 106.863 170.434 106.828 C 168.885 106.721 165.321 108.016 164.602 109.203 C 163.881 110.355 164.168 111.904 165.862 113.848 C 167.805 112.912 169.245 112.192 170.577 111.401 C 171.867 110.621 172.657 109.901 173.347 109.251 L 173.35 109.24 Z"/>
  <path transform="matrix(1 0 0 1 0.88 0.54)" fill-rule="evenodd" clip-rule="evenodd" stroke-width="0.036" stroke="#000" stroke-miterlimit="10" id="imagebot_17" fill="#804000" d="M 16.353 103.01 C 14.229 106.033 13.617 109.201 14.373 112.514 S 17.973 119.211 20.961 122.666 C 23.769 126.014 24.489 128.029 31.725 132.602 C 39.033 137.102 50.049 145.526 64.089 149.522 C 78.093 153.411 100.161 156.651 114.885 155.895 C 129.573 154.922 140.949 149.811 151.354 144.303 C 161.577 138.651 169.641 131.774 175.977 122.846 C 178.748 118.239 180.153 114.746 180.332 112.514 C 180.549 110.067 179.973 107.834 176.805 109.166 C 173.385 110.533 166.221 117.518 160.569 120.83 C 154.989 124.07 149.266 126.482 143.397 128.353 L 140.77 135.085 L 132.596 130.478 C 129.358 131.234 125.11 130.621 119.709 129.037 C 114.236 127.273 107.9 124.537 100.269 120.433 C 93.573 123.529 86.517 125.581 78.957 126.986 C 71.217 128.246 62.433 129.83 54.837 128.425 C 47.097 126.769 40.113 122.521 33.597 118.2 C 27.136 113.91 21.52 108.94 16.372 103.03 L 16.353 103.01 Z"/>
  <path transform="matrix(1 0 0 1 0.88 0.54)" fill-rule="evenodd" clip-rule="evenodd" stroke-width="0.036" stroke="#000" stroke-miterlimit="10" id="imagebot_18" d="M 63.729 133.86 C 64.305 134.508 84.681 139.44 95.841 140.053 C 106.893 140.448 124.965 137.641 129.213 136.776 C 133.102 135.878 126.297 134.797 120.176 134.797 C 114.022 134.688 102.465 136.596 92.997 136.488 C 83.427 136.318 63.303 133.228 63.735 133.868 L 63.729 133.86 Z"/>
  <path transform="matrix(1 0 0 1 0.88 0.54)" fill-rule="evenodd" clip-rule="evenodd" stroke-width="0.036" stroke="#000" stroke-miterlimit="10" id="imagebot_19" fill="#C6902C" d="M 16.749 119.65 C 20.457 125.302 25.533 130.593 31.977 135.67 C 38.313 140.709 45.945 146.182 55.305 149.854 C 64.737 153.418 76.005 155.866 87.741 157.198 C 99.333 158.458 113.301 159.395 124.354 157.522 C 135.19 155.434 144.874 150.213 152.829 145.606 C 160.786 141.034 166.798 135.887 171.55 130.163 C 172.019 134.698 170.253 139.27 166.654 144.022 C 162.838 148.811 156.791 154.354 149.482 158.422 C 142.138 162.238 134.039 165.549 123.093 167.387 C 111.935 169.114 96.994 171.022 83.71 169.223 C 70.426 167.243 54.586 161.662 44.254 156.514 C 33.85 151.293 26.434 145.174 21.862 138.983 C 17.23 132.723 15.574 126.453 16.762 119.653 L 16.749 119.65 Z"/>
  <path transform="matrix(1 0 0 1 0.88 0.54)" fill-rule="evenodd" clip-rule="evenodd" stroke-width="0.036" stroke="#000" stroke-miterlimit="10" id="imagebot_20" fill="#80FF00" d="M 110.06 93.078 C 111.248 98.226 112.58 101.971 114.056 104.742 C 115.568 107.334 117.189 108.486 118.773 109.17 C 120.32 109.674 121.869 109.315 123.021 108.629 C 124.064 107.983 124.496 106.865 124.712 105.281 C 126.476 106.541 127.843 107.117 129.212 107.01 C 130.472 106.793 130.831 104.85 132.38 104.526 C 133.857 104.13 135.98 104.274 138.464 104.815 C 139.075 101.467 140.444 99.377 142.999 98.551 C 145.483 97.723 151.028 98.621 153.224 99.846 C 155.24 100.961 154.701 104.598 155.636 105.319 C 156.536 105.786 157.437 102.006 158.769 103.555 C 160.101 105.139 162.259 113.67 163.16 114.858 C 163.844 115.903 162.873 112.051 163.017 110.251 C 163.124 108.308 162.8 105.175 163.701 104.202 C 164.601 103.304 166.365 104.563 167.877 104.778 C 169.172 104.887 170.434 104.958 171.656 104.995 C 170.361 102.366 169.676 100.171 169.748 98.011 C 169.748 95.888 170.469 94.339 171.908 92.396 C 173.277 90.308 175.256 88.22 177.992 85.843 L 161.721 82.711 C 158.194 84.691 153.442 86.347 147.321 88.11 C 141.092 89.766 131.194 91.747 124.966 92.682 C 118.746 93.54 113.776 93.577 110.066 93.073 L 110.06 93.078 Z"/>
  <path transform="matrix(1 0 0 1 0.88 0.54)" fill-rule="evenodd" clip-rule="evenodd" stroke-width="0.036" stroke="#000" stroke-miterlimit="10" id="imagebot_21" fill="#80FF00" d="M 19.377 67.878 C 19.593 70.002 19.053 71.55 17.613 72.378 C 16.101 73.134 13.293 72.99 10.737 72.774 C 8.001 72.414 3.033 70.47 2.061 70.83 C 1.161 71.046 3.573 73.89 5.265 74.79 C 6.921 75.654 8.937 76.194 11.709 76.266 C 9.657 78.534 8.613 80.514 8.721 82.206 C 8.793 83.79 10.377 85.59 11.961 86.202 C 13.401 86.706 15.561 85.518 17.325 85.698 C 18.801 85.878 19.557 87.785 21.825 87.102 C 24.201 86.238 27.225 84.15 31.329 80.694 C 29.817 80.118 28.197 78.714 26.181 76.626 C 24.165 74.394 21.897 71.622 19.377 67.878 Z"/>
  <path transform="matrix(1 0 0 1 0.88 0.54)" fill-rule="evenodd" clip-rule="evenodd" stroke-width="0.036" stroke="#000" stroke-miterlimit="10" id="imagebot_22" d="M 44.829 87.138 C 44.685 86.85 43.101 86.598 42.993 86.67 C 42.849 86.778 43.281 87.498 43.713 87.715 C 43.965 87.715 44.937 87.246 44.829 87.138 Z"/>
  <path transform="matrix(1 0 0 1 0.88 0.54)" fill-rule="evenodd" clip-rule="evenodd" stroke-width="0.036" stroke="#000" stroke-miterlimit="10" id="imagebot_23" d="M 45.405 90.773 C 45.261 90.486 43.677 90.234 43.569 90.306 C 43.461 90.413 43.785 91.134 44.253 91.349 C 44.469 91.35 45.549 90.883 45.405 90.773 Z"/>
  <path transform="matrix(1 0 0 1 0.88 0.54)" fill-rule="evenodd" clip-rule="evenodd" stroke-width="0.036" stroke="#000" stroke-miterlimit="10" id="imagebot_24" d="M 45.405 97.902 C 45.261 97.613 43.677 97.361 43.569 97.433 C 43.461 97.54 43.785 98.261 44.253 98.478 C 44.469 98.479 45.549 98.01 45.405 97.902 Z"/>
  <path transform="matrix(1 0 0 1 0.88 0.54)" fill-rule="evenodd" clip-rule="evenodd" stroke-width="0.036" stroke="#000" stroke-miterlimit="10" id="imagebot_25" d="M 45.009 94.338 C 44.829 94.051 43.353 93.762 43.209 93.906 C 43.101 94.013 43.425 94.734 43.893 94.949 C 44.145 94.949 45.117 94.518 45.009 94.338 Z"/>
  <path transform="matrix(1 0 0 1 0.88 0.54)" fill-rule="evenodd" clip-rule="evenodd" stroke-width="0.036" stroke="#000" stroke-miterlimit="10" id="imagebot_26" d="M 46.413 102.01 C 46.269 101.723 44.685 101.471 44.577 101.541 C 44.469 101.613 44.793 102.441 45.261 102.621 C 45.477 102.621 46.557 102.191 46.413 102.011 L 46.413 102.01 Z"/>
  <path transform="matrix(1 0 0 1 0.88 0.54)" fill-rule="evenodd" clip-rule="evenodd" stroke-width="0.036" stroke="#000" stroke-miterlimit="10" id="imagebot_27" d="M 47.025 106.04 C 46.881 105.753 45.297 105.501 45.189 105.573 C 45.081 105.68 45.405 106.401 45.873 106.616 C 46.089 106.616 47.169 106.156 47.025 106.046 L 47.025 106.04 Z"/>
  <path transform="matrix(1 0 0 1 0.88 0.54)" fill-rule="evenodd" clip-rule="evenodd" stroke-width="0.036" stroke="#000" stroke-miterlimit="10" id="imagebot_28" d="M 51.453 107.08 C 51.561 106.791 53.109 106.648 53.325 106.791 C 53.469 106.9 52.785 107.656 52.533 107.801 C 52.137 107.801 51.309 107.191 51.453 107.081 L 51.453 107.08 Z"/>
  <path transform="matrix(1 0 0 1 0.88 0.54)" fill-rule="evenodd" clip-rule="evenodd" stroke-width="0.036" stroke="#000" stroke-miterlimit="10" id="imagebot_29" d="M 52.893 102.8 C 53.001 102.583 54.549 102.404 54.765 102.546 C 54.909 102.691 54.225 103.339 53.973 103.519 C 53.577 103.519 52.749 102.909 52.893 102.799 L 52.893 102.8 Z"/>
  <path transform="matrix(1 0 0 1 0.88 0.54)" fill-rule="evenodd" clip-rule="evenodd" stroke-width="0.036" stroke="#000" stroke-miterlimit="10" id="imagebot_30" d="M 54.117 98.873 C 54.225 98.658 55.773 98.478 55.989 98.621 C 56.133 98.766 55.449 99.414 55.197 99.594 C 54.801 99.594 53.973 98.982 54.117 98.873 Z"/>
  <path transform="matrix(1 0 0 1 0.88 0.54)" fill-rule="evenodd" clip-rule="evenodd" stroke-width="0.036" stroke="#000" stroke-miterlimit="10" id="imagebot_31" d="M 55.773 95.453 C 55.809 95.166 57.393 95.021 57.609 95.166 C 57.717 95.311 57.141 95.957 56.853 96.139 C 56.457 96.102 55.629 95.598 55.773 95.453 Z"/>
  <path transform="matrix(1 0 0 1 0.88 0.54)" fill-rule="evenodd" clip-rule="evenodd" stroke-width="0.036" stroke="#000" stroke-miterlimit="10" id="imagebot_32" d="M 56.781 91.709 C 56.889 91.422 58.437 91.277 58.653 91.422 C 58.797 91.567 58.113 92.215 57.861 92.395 C 57.465 92.357 56.637 91.854 56.781 91.709 Z"/>
  <path transform="matrix(1 0 0 1 0.88 0.54)" fill-rule="evenodd" clip-rule="evenodd" stroke-width="0.036" stroke="#000" stroke-miterlimit="10" id="imagebot_33" d="M 176.55 77.706 C 176.73 77.598 177.126 76.086 177.198 75.942 C 177.089 75.69 176.118 76.158 176.081 76.518 C 175.901 76.734 176.341 77.778 176.551 77.706 L 176.55 77.706 Z"/>
  <path transform="matrix(1 0 0 1 0.88 0.54)" fill-rule="evenodd" clip-rule="evenodd" stroke-width="0.036" stroke="#000" stroke-miterlimit="10" id="imagebot_34" d="M 181.09 79.722 C 181.272 79.614 181.666 78.102 181.738 77.958 C 181.631 77.706 180.658 78.174 180.623 78.534 C 180.443 78.75 180.873 79.794 181.093 79.722 L 181.09 79.722 Z"/>
  <path transform="matrix(1 0 0 1 0.88 0.54)" fill-rule="evenodd" clip-rule="evenodd" stroke-width="0.036" stroke="#000" stroke-miterlimit="10" id="imagebot_35" d="M 185.52 81.99 C 185.7 81.918 186.094 80.298 186.166 80.19 C 186.059 79.938 185.086 80.406 185.051 80.766 C 184.861 81.054 185.291 82.062 185.511 81.99 L 185.52 81.99 Z"/>
  <path transform="matrix(1 0 0 1 0.88 0.54)" fill-rule="evenodd" clip-rule="evenodd" stroke-width="0.036" stroke="#000" stroke-miterlimit="10" id="imagebot_36" d="M 190.95 83.502 C 191.13 83.394 191.526 81.882 191.598 81.738 C 191.489 81.486 190.518 81.954 190.481 82.314 C 190.301 82.53 190.741 83.574 190.951 83.502 L 190.95 83.502 Z"/>
  <path transform="matrix(1 0 0 1 0.88 0.54)" fill-rule="evenodd" clip-rule="evenodd" stroke-width="0.036" stroke="#000" stroke-miterlimit="10" id="imagebot_37" d="M 189.04 76.878 C 189.22 76.806 189.616 75.186 189.688 75.078 C 189.579 74.826 188.608 75.294 188.571 75.654 C 188.401 75.942 188.831 76.95 189.041 76.878 L 189.04 76.878 Z"/>
  <path transform="matrix(1 0 0 1 0.88 0.54)" fill-rule="evenodd" clip-rule="evenodd" stroke-width="0.036" stroke="#000" stroke-miterlimit="10" id="imagebot_38" d="M 185.66 72.558 C 185.912 72.45 186.273 70.938 186.344 70.794 C 186.201 70.542 185.301 71.01 185.194 71.37 C 185.014 71.586 185.454 72.63 185.664 72.558 L 185.66 72.558 Z"/>
  <path transform="matrix(1 0 0 1 0.88 0.54)" fill-rule="evenodd" clip-rule="evenodd" stroke-width="0.036" stroke="#000" stroke-miterlimit="10" id="imagebot_39" d="M 180.55 69.138 C 180.802 69.03 181.161 67.518 181.234 67.374 C 181.089 67.122 180.191 67.59 180.082 67.95 C 179.902 68.166 180.332 69.21 180.552 69.138 L 180.55 69.138 Z"/>
  <path transform="matrix(1 0 0 1 0.88 0.54)" fill-rule="evenodd" clip-rule="evenodd" stroke-width="0.036" stroke="#000" stroke-miterlimit="10" id="imagebot_40" d="M 156.5 87.785 C 156.572 87.605 159.92 88.723 161.686 90.738 C 163.305 92.826 166.186 98.873 166.581 100.134 C 166.833 101.249 164.962 99.196 164.026 97.722 C 163.018 96.138 162.118 92.718 160.928 91.062 C 159.608 89.266 156.328 87.899 156.508 87.789 L 156.5 87.785 Z"/>
  <path transform="matrix(1 0 0 1 0.88 0.54)" fill-rule="evenodd" clip-rule="evenodd" stroke-width="0.036" stroke="#000" stroke-miterlimit="10" id="imagebot_41" d="M 125.29 94.23 C 124.894 94.013 125.218 96.966 124.317 98.369 C 123.417 99.738 119.817 102.041 119.889 102.365 C 119.854 102.545 123.057 100.242 124.209 99.918 C 125.217 99.449 125.072 100.063 126.117 100.387 C 127.017 100.782 130.185 102.151 130.221 102.114 C 130.149 101.934 126.946 100.458 126.153 99.235 C 125.293 97.869 125.503 94.307 125.293 94.234 L 125.29 94.23 Z"/>
  <path transform="matrix(1 0 0 1 0.88 0.54)" fill-rule="evenodd" clip-rule="evenodd" stroke-width="0.036" stroke="#000" stroke-miterlimit="10" id="imagebot_42" d="M 94.725 94.59 C 94.401 96.067 94.077 97.399 93.753 98.731 S 94.509 101.358 93.321 102.762 C 92.061 104.201 86.337 107.01 86.445 107.155 C 86.589 107.262 92.061 103.807 93.609 104.167 C 95.121 104.563 95.157 109.603 95.481 109.53 C 95.805 109.387 94.545 106.471 96.633 104.671 C 98.721 102.87 101.313 102.655 101.313 102.655 C 99.153 102.727 97.605 102.151 96.525 100.782 C 95.412 99.426 94.764 97.41 94.728 94.602 L 94.725 94.59 Z"/>
  <path transform="matrix(1 0 0 1 0.88 0.54)" fill-rule="evenodd" clip-rule="evenodd" stroke-width="0.036" stroke="#000" stroke-miterlimit="10" id="imagebot_43" d="M 49.977 47.862 C 49.401 47.97 48.501 48.078 47.853 48.726 C 47.025 49.194 45.657 50.346 45.549 51.21 C 45.477 52.038 46.341 53.442 47.169 53.622 C 47.817 53.658 48.825 52.794 49.617 51.858 C 50.229 50.814 51.273 48.69 51.381 48.006 C 51.417 47.358 50.481 47.682 49.977 47.862 Z"/>
  <path transform="matrix(1 0 0 1 0.88 0.54)" fill-rule="evenodd" clip-rule="evenodd" stroke-width="0.036" stroke="#000" stroke-miterlimit="10" id="imagebot_44" fill="#FFE42E" d="M 49.581 48.51 C 49.149 48.474 48.573 48.69 47.997 49.158 C 47.385 49.626 46.125 50.526 46.017 51.318 C 45.801 51.966 46.665 53.046 47.241 53.154 C 47.745 53.082 48.717 52.254 49.329 51.498 C 49.869 50.598 50.589 49.194 50.661 48.654 C 50.661 48.15 49.977 48.33 49.581 48.51 Z"/>
  <path transform="matrix(1 0 0 1 0.88 0.54)" fill-rule="evenodd" clip-rule="evenodd" stroke-width="0.036" stroke="#000" stroke-miterlimit="10" id="imagebot_45" d="M 80.469 58.59 C 80.613 59.094 80.757 59.922 81.477 60.642 C 82.125 61.326 83.205 62.622 84.177 62.73 C 85.005 62.73 86.265 61.47 86.445 60.894 C 86.481 60.102 85.365 59.202 84.465 58.626 C 83.277 57.87 81.261 57.258 80.505 57.186 C 79.821 57.15 80.181 57.942 80.469 58.59 Z"/>
  <path transform="matrix(1 0 0 1 0.88 0.54)" fill-rule="evenodd" clip-rule="evenodd" stroke-width="0.036" stroke="#000" stroke-miterlimit="10" id="imagebot_46" fill="#FFE42E" d="M 81.153 58.914 C 81.153 59.346 81.405 59.814 81.909 60.462 C 82.449 61.002 83.457 62.118 84.249 62.262 C 84.897 62.298 85.833 61.362 85.941 60.858 C 85.869 60.246 84.897 59.418 84.141 58.95 C 83.241 58.338 81.657 57.834 81.189 57.87 C 80.721 57.762 80.937 58.482 81.153 58.914 Z"/>
  <path transform="matrix(1 0 0 1 0.88 0.54)" fill-rule="evenodd" clip-rule="evenodd" stroke-width="0.036" stroke="#000" stroke-miterlimit="10" id="imagebot_47" d="M 107.04 36.45 C 106.464 36.486 105.563 36.666 104.915 37.278 C 104.087 37.89 102.72 38.826 102.612 39.798 C 102.54 40.626 103.403 42.03 104.231 42.21 C 104.879 42.174 105.887 41.382 106.678 40.41 C 107.291 39.33 108.334 37.314 108.444 36.594 C 108.464 35.946 107.524 36.27 107.024 36.45 L 107.04 36.45 Z"/>
  <path transform="matrix(1 0 0 1 0.88 0.54)" fill-rule="evenodd" clip-rule="evenodd" stroke-width="0.036" stroke="#000" stroke-miterlimit="10" id="imagebot_48" fill="#FFD028" d="M 106.64 37.098 C 106.208 37.062 105.632 37.278 105.056 37.746 C 104.445 38.214 103.185 39.114 103.076 39.906 C 102.861 40.59 103.724 41.562 104.301 41.706 C 104.733 41.67 105.74 40.806 106.354 40.086 C 106.893 39.222 107.614 37.71 107.686 37.206 C 107.656 36.666 107.076 36.954 106.646 37.098 L 106.64 37.098 Z"/>
  <path transform="matrix(1 0 0 1 0.88 0.54)" fill-rule="evenodd" clip-rule="evenodd" stroke-width="0.036" stroke="#000" stroke-miterlimit="10" id="imagebot_49" d="M 96.633 23.166 C 96.237 23.706 95.877 24.282 95.841 25.29 C 95.697 26.226 95.517 27.954 96.129 28.674 C 96.705 29.25 98.361 29.502 99.009 29.142 C 99.513 28.71 99.477 27.198 99.333 26.118 C 99.081 24.858 98.073 22.734 97.713 22.23 C 97.209 21.726 96.849 22.554 96.633 23.166 Z"/>
  <path transform="matrix(1 0 0 1 0.88 0.54)" fill-rule="evenodd" clip-rule="evenodd" stroke-width="0.036" stroke="#000" stroke-miterlimit="10" id="imagebot_50" fill="#FFE42E" d="M 96.885 23.886 C 96.669 24.174 96.237 24.714 96.273 25.506 C 96.129 26.298 96.165 27.738 96.525 28.422 C 96.957 28.926 98.145 29.034 98.685 28.746 C 99.045 28.35 99.009 27.018 98.865 26.118 C 98.649 25.074 97.929 23.598 97.677 23.202 C 97.281 22.698 97.065 23.526 96.885 23.886 Z"/>
  <path transform="matrix(1 0 0 1 0.88 0.54)" fill-rule="evenodd" clip-rule="evenodd" stroke-width="0.036" stroke="#000" stroke-miterlimit="10" id="imagebot_51" d="M 110.17 15.498 C 110.494 15.75 110.856 16.074 111.539 16.326 C 112.15 16.434 113.303 16.83 113.879 16.542 C 114.383 16.218 114.598 15.03 114.527 14.634 C 114.203 14.274 113.338 13.95 112.509 14.058 C 111.611 14.094 110.062 14.346 109.665 14.67 C 109.155 14.886 109.875 15.21 110.165 15.498 L 110.17 15.498 Z"/>
  <path transform="matrix(1 0 0 1 0.88 0.54)" fill-rule="evenodd" clip-rule="evenodd" stroke-width="0.036" stroke="#000" stroke-miterlimit="10" id="imagebot_52" fill="#FFE42E" d="M 110.71 15.426 C 110.817 15.606 111.249 15.858 111.718 16.038 C 112.222 16.182 113.267 16.29 113.734 16.218 C 114.166 16.038 114.382 14.958 114.238 14.778 C 113.951 14.454 113.086 14.31 112.474 14.346 C 111.753 14.31 110.673 14.598 110.351 14.814 C 110.021 14.958 110.411 15.21 110.701 15.426 L 110.71 15.426 Z"/>
  <path transform="matrix(1 0 0 1 0.88 0.54)" fill-rule="evenodd" clip-rule="evenodd" stroke-width="0.036" stroke="#000" stroke-miterlimit="10" id="imagebot_53" d="M 104.37 9.702 C 104.19 9.234 103.866 8.874 103.397 8.478 C 102.786 8.046 101.85 7.326 101.274 7.434 C 100.553 7.506 99.941 8.442 99.977 8.982 C 100.049 9.45 100.805 9.918 101.668 10.242 C 102.424 10.53 103.973 10.674 104.514 10.674 C 104.874 10.422 104.544 10.098 104.364 9.702 L 104.37 9.702 Z"/>
  <path transform="matrix(1 0 0 1 0.88 0.54)" fill-rule="evenodd" clip-rule="evenodd" stroke-width="0.036" stroke="#000" stroke-miterlimit="10" id="imagebot_54" fill="#FFE42E" d="M 103.83 9.594 C 103.615 9.198 103.506 9.018 103.111 8.658 C 102.607 8.298 101.779 7.722 101.31 7.758 C 100.806 7.866 100.158 8.406 100.338 8.946 C 100.446 9.234 101.13 9.774 101.814 9.99 C 102.462 10.17 103.505 10.278 103.974 10.314 C 104.224 10.17 103.894 9.882 103.824 9.594 L 103.83 9.594 Z"/>
  <path transform="matrix(1 0 0 1 0.88 0.54)" fill-rule="evenodd" clip-rule="evenodd" stroke-width="0.036" stroke="#000" stroke-miterlimit="10" id="imagebot_55" d="M 89.289 11.178 C 89.361 10.746 89.649 10.278 89.613 9.63 C 89.505 8.838 89.505 7.758 89.073 7.362 S 87.273 6.966 87.057 7.362 C 86.733 7.65 86.769 8.622 87.165 9.45 C 87.417 10.134 88.245 11.61 88.677 11.934 C 88.965 12.186 89.073 11.466 89.289 11.178 Z"/>
  <path transform="matrix(1 0 0 1 0.88 0.54)" fill-rule="evenodd" clip-rule="evenodd" stroke-width="0.036" stroke="#000" stroke-miterlimit="10" id="imagebot_56" fill="#FFE42E" d="M 89.073 10.71 C 89.145 10.386 89.325 9.99 89.325 9.522 C 89.289 8.946 89.073 7.83 88.821 7.578 C 88.461 7.218 87.453 7.218 87.309 7.578 C 86.949 7.902 87.273 8.658 87.453 9.414 C 87.669 9.99 88.245 10.926 88.605 11.25 C 88.785 11.43 88.893 10.926 89.073 10.71 Z"/>
  <path transform="matrix(1 0 0 1 0.88 0.54)" fill-rule="evenodd" clip-rule="evenodd" stroke-width="0.036" stroke="#000" stroke-miterlimit="10" id="imagebot_57" d="M 73.269 8.766 C 73.197 9.234 73.161 9.63 73.449 10.35 C 73.629 10.926 74.097 12.042 74.709 12.33 C 75.213 12.474 76.401 12.078 76.617 11.682 C 76.653 11.178 76.401 10.35 75.861 9.738 C 75.321 9.054 74.025 7.974 73.629 7.866 C 73.161 7.722 73.269 8.298 73.269 8.766 Z"/>
  <path transform="matrix(1 0 0 1 0.88 0.54)" fill-rule="evenodd" clip-rule="evenodd" stroke-width="0.036" stroke="#000" stroke-miterlimit="10" id="imagebot_58" fill="#FFE42E" d="M 73.629 9.162 C 73.557 9.414 73.557 9.81 73.773 10.35 C 73.881 10.746 74.421 11.826 74.853 12.042 C 75.213 12.114 76.113 11.898 76.293 11.538 C 76.293 11.07 76.005 10.422 75.573 9.882 C 75.177 9.342 74.169 8.55 73.917 8.478 C 73.629 8.298 73.485 8.802 73.629 9.162 Z"/>
  <path transform="matrix(1 0 0 1 0.88 0.54)" fill-rule="evenodd" clip-rule="evenodd" stroke-width="0.036" stroke="#000" stroke-miterlimit="10" id="imagebot_59" d="M 67.257 15.714 C 67.041 15.354 66.645 14.778 66.213 14.526 C 65.565 14.094 64.557 13.482 64.017 13.662 C 63.333 13.806 62.757 14.67 62.865 15.282 C 62.865 15.714 63.765 16.146 64.593 16.434 C 65.313 16.65 66.969 16.686 67.473 16.686 C 67.869 16.434 67.473 16.11 67.257 15.714 Z"/>
  <path transform="matrix(1 0 0 1 0.88 0.54)" fill-rule="evenodd" clip-rule="evenodd" stroke-width="0.036" stroke="#000" stroke-miterlimit="10" id="imagebot_60" fill="#FFD028" d="M 66.717 15.642 C 66.537 15.282 66.321 15.03 65.925 14.742 C 65.385 14.31 64.485 13.914 64.053 13.95 C 63.513 13.986 63.081 14.778 63.189 15.21 C 63.261 15.57 64.053 15.93 64.737 16.146 C 65.385 16.29 66.429 16.398 66.897 16.326 C 67.149 16.182 66.861 15.858 66.717 15.642 Z"/>
  <path transform="matrix(1 0 0 1 0.88 0.54)" fill-rule="evenodd" clip-rule="evenodd" stroke-width="0.036" stroke="#000" stroke-miterlimit="10" id="imagebot_61" d="M 125.76 7.866 C 125.365 7.614 124.932 7.254 124.321 7.218 C 123.565 7.002 122.413 6.93 121.981 7.29 C 121.442 7.506 121.26 8.91 121.585 9.27 C 121.874 9.558 122.702 9.666 123.638 9.594 C 124.429 9.414 125.943 8.91 126.374 8.658 C 126.734 8.334 126.014 8.118 125.764 7.866 L 125.76 7.866 Z"/>
  <path transform="matrix(1 0 0 1 0.88 0.54)" fill-rule="evenodd" clip-rule="evenodd" stroke-width="0.036" stroke="#000" stroke-miterlimit="10" id="imagebot_62" fill="#FFE42E" d="M 125.25 8.01 C 124.963 7.758 124.604 7.542 124.17 7.506 C 123.594 7.29 122.551 7.362 122.154 7.578 C 121.758 7.722 121.47 8.766 121.83 9.054 C 122.082 9.234 122.91 9.414 123.631 9.306 C 124.242 9.09 125.395 8.802 125.719 8.586 C 125.939 8.334 125.499 8.19 125.249 8.01 L 125.25 8.01 Z"/>
  <path transform="matrix(1 0 0 1 0.88 0.54)" fill-rule="evenodd" clip-rule="evenodd" stroke-width="0.036" stroke="#000" stroke-miterlimit="10" id="imagebot_63" d="M 132.88 13.734 C 133.025 13.374 133.419 12.834 133.491 12.258 C 133.6 11.502 133.6 10.35 133.348 9.918 C 132.952 9.414 131.692 9.306 131.368 9.594 C 130.972 9.81 130.827 10.818 131.079 11.646 C 131.151 12.474 131.835 13.842 132.159 14.346 C 132.379 14.706 132.669 13.986 132.879 13.734 L 132.88 13.734 Z"/>
  <path transform="matrix(1 0 0 1 0.88 0.54)" fill-rule="evenodd" clip-rule="evenodd" stroke-width="0.036" stroke="#000" stroke-miterlimit="10" id="imagebot_64" fill="#FFE42E" d="M 132.74 13.23 C 132.885 13.014 133.136 12.51 133.209 12.114 C 133.244 11.574 133.244 10.386 133.064 10.098 C 132.705 9.63 131.839 9.594 131.587 9.846 C 131.228 10.098 131.3 10.926 131.407 11.646 C 131.479 12.294 131.876 13.302 132.2 13.698 C 132.35 13.914 132.54 13.482 132.75 13.23 L 132.74 13.23 Z"/>
  <path transform="matrix(1 0 0 1 0.88 0.54)" fill-rule="evenodd" clip-rule="evenodd" stroke-width="0.036" stroke="#000" stroke-miterlimit="10" id="imagebot_65" d="M 141.67 13.806 C 141.563 14.274 141.635 14.67 141.887 15.39 C 142.104 16.002 142.643 16.974 143.219 17.334 C 143.758 17.55 144.838 16.938 145.09 16.614 C 145.199 16.11 144.803 15.282 144.299 14.706 C 143.723 14.094 142.356 12.942 141.994 12.906 C 141.524 12.762 141.594 13.338 141.664 13.806 L 141.67 13.806 Z"/>
  <path transform="matrix(1 0 0 1 0.88 0.54)" fill-rule="evenodd" clip-rule="evenodd" stroke-width="0.036" stroke="#000" stroke-miterlimit="10" id="imagebot_66" fill="#FFE42E" d="M 142.06 14.166 C 141.988 14.418 141.988 14.814 142.205 15.354 C 142.42 15.858 142.853 16.794 143.357 17.046 C 143.681 17.154 144.652 16.83 144.761 16.506 C 144.796 16.11 144.4 15.282 144.003 14.85 C 143.536 14.274 142.601 13.59 142.312 13.482 C 142.002 13.302 141.972 13.806 142.072 14.166 L 142.06 14.166 Z"/>
  <path transform="matrix(1 0 0 1 0.88 0.54)" fill-rule="evenodd" clip-rule="evenodd" stroke-width="0.036" stroke="#000" stroke-miterlimit="10" id="imagebot_67" d="M 152.29 23.49 C 151.966 23.202 151.462 22.806 150.921 22.734 C 150.165 22.482 149.05 22.41 148.546 22.662 C 148.005 22.95 147.681 24.138 148.005 24.57 C 148.294 25.002 149.122 25.038 150.058 25.074 C 150.921 25.002 152.326 24.462 152.867 24.282 C 153.197 24.066 152.587 23.67 152.297 23.49 L 152.29 23.49 Z"/>
  <path transform="matrix(1 0 0 1 0.88 0.54)" fill-rule="evenodd" clip-rule="evenodd" stroke-width="0.036" stroke="#000" stroke-miterlimit="10" id="imagebot_68" fill="#FFE42E" d="M 151.79 23.562 C 151.466 23.31 151.249 23.13 150.745 23.022 C 150.169 22.806 149.126 22.734 148.729 22.95 C 148.26 23.13 148.081 24.066 148.333 24.39 C 148.513 24.606 149.378 24.822 150.097 24.75 C 150.71 24.642 151.863 24.354 152.185 24.174 C 152.375 23.958 152.015 23.706 151.805 23.562 L 151.79 23.562 Z"/>
  <path transform="matrix(1 0 0 1 0.88 0.54)" fill-rule="evenodd" clip-rule="evenodd" stroke-width="0.036" stroke="#000" stroke-miterlimit="10" id="imagebot_69" d="M 130.4 44.19 C 129.968 43.686 129.285 43.218 128.492 42.93 C 127.521 42.57 125.9 42.03 125.144 42.426 C 124.388 42.786 123.705 44.442 124.064 45.162 C 124.281 45.738 125.685 46.062 126.908 46.134 C 128.133 46.098 130.365 45.774 131.084 45.45 C 131.594 45.054 130.764 44.586 130.404 44.19 L 130.4 44.19 Z"/>
  <path transform="matrix(1 0 0 1 0.88 0.54)" fill-rule="evenodd" clip-rule="evenodd" stroke-width="0.036" stroke="#000" stroke-miterlimit="10" id="imagebot_70" fill="#FFE42E" d="M 129.64 44.262 C 129.316 43.902 128.884 43.434 128.201 43.29 C 127.48 42.894 125.824 42.606 125.32 42.858 C 124.601 43.146 124.24 44.298 124.529 44.91 C 124.744 45.306 126.041 45.702 127.013 45.702 C 127.911 45.666 129.605 45.45 130.144 45.198 C 130.514 44.91 129.974 44.55 129.644 44.262 L 129.64 44.262 Z"/>
  <path transform="matrix(1 0 0 1 0.88 0.54)" fill-rule="evenodd" clip-rule="evenodd" stroke-width="0.036" stroke="#000" stroke-miterlimit="10" id="imagebot_71" d="M 152.4 37.026 C 151.716 37.134 150.961 37.242 150.277 37.89 C 149.377 38.358 148.152 39.51 148.007 40.374 C 147.864 41.202 148.907 42.606 149.628 42.786 C 150.239 42.75 151.319 41.958 152.04 40.986 C 152.724 39.906 153.696 37.89 153.839 37.17 C 153.949 36.522 152.869 36.846 152.399 37.026 L 152.4 37.026 Z"/>
  <path transform="matrix(1 0 0 1 0.88 0.54)" fill-rule="evenodd" clip-rule="evenodd" stroke-width="0.036" stroke="#000" stroke-miterlimit="10" id="imagebot_72" fill="#FFE42E" d="M 152.04 37.674 C 151.536 37.638 150.995 37.854 150.419 38.322 S 148.44 39.69 148.44 40.482 C 148.295 41.13 149.086 42.21 149.7 42.318 C 150.239 42.246 151.104 41.418 151.751 40.662 C 152.292 39.762 153.011 38.358 153.083 37.818 C 153.043 37.314 152.473 37.494 152.043 37.674 L 152.04 37.674 Z"/>
  <path transform="matrix(1 0 0 1 0.88 0.54)" fill-rule="evenodd" clip-rule="evenodd" stroke-width="0.036" stroke="#000" stroke-miterlimit="10" id="imagebot_73" d="M 145.84 53.298 C 145.985 53.766 146.416 54.594 147.137 55.206 C 147.748 55.746 149.225 56.97 150.053 56.934 C 150.774 56.754 152.141 55.494 152.069 54.81 C 151.924 53.982 150.846 53.37 149.801 52.83 C 148.686 52.29 146.346 51.75 145.697 51.894 C 145.007 51.894 145.507 52.686 145.827 53.298 L 145.84 53.298 Z"/>
  <path transform="matrix(1 0 0 1 0.88 0.54)" fill-rule="evenodd" clip-rule="evenodd" stroke-width="0.036" stroke="#000" stroke-miterlimit="10" id="imagebot_74" fill="#FFE42E" d="M 146.56 53.55 C 146.705 53.91 146.849 54.486 147.533 54.99 C 148.109 55.53 149.332 56.394 150.088 56.466 C 150.664 56.394 151.672 55.35 151.602 54.846 C 151.493 54.234 150.305 53.55 149.549 53.19 C 148.649 52.722 146.92 52.398 146.453 52.506 C 145.933 52.506 146.293 53.082 146.573 53.55 L 146.56 53.55 Z"/>
  <path transform="matrix(1 0 0 1 0.88 0.54)" fill-rule="evenodd" clip-rule="evenodd" stroke-width="0.036" stroke="#000" stroke-miterlimit="10" id="imagebot_75" d="M 144.48 71.298 C 144.66 70.686 144.804 69.93 144.769 69.03 C 144.552 68.058 144.335 66.294 143.689 65.826 C 142.968 65.286 141.168 65.502 140.773 66.078 C 140.304 66.582 140.628 67.95 141.168 69.066 C 141.709 70.074 143.004 72.09 143.689 72.486 C 144.199 72.81 144.269 71.766 144.489 71.298 L 144.48 71.298 Z"/>
  <path transform="matrix(1 0 0 1 0.88 0.54)" fill-rule="evenodd" clip-rule="evenodd" stroke-width="0.036" stroke="#000" stroke-miterlimit="10" id="imagebot_76" fill="#FFE42E" d="M 144.08 70.65 C 144.225 70.218 144.297 69.606 144.297 68.958 C 144.19 68.058 143.828 66.618 143.361 66.15 C 142.785 65.646 141.453 65.898 141.164 66.366 C 140.84 66.834 141.164 68.022 141.596 68.958 C 141.92 69.786 143 71.19 143.469 71.514 C 143.839 71.802 143.909 71.01 144.089 70.65 L 144.08 70.65 Z"/>
  <path transform="matrix(1 0 0 1 0.88 0.54)" fill-rule="evenodd" clip-rule="evenodd" stroke-width="0.036" stroke="#000" stroke-miterlimit="10" id="imagebot_77" d="M 119.21 62.37 C 118.706 61.902 118.202 61.326 117.302 61.074 C 116.329 60.75 114.71 60.102 113.954 60.534 C 113.126 60.93 112.477 62.478 112.837 63.234 C 113.054 63.774 114.458 64.206 115.681 64.242 C 116.906 64.134 119.138 64.026 119.859 63.63 C 120.439 63.234 119.569 62.766 119.219 62.37 L 119.21 62.37 Z"/>
  <path transform="matrix(1 0 0 1 0.88 0.54)" fill-rule="evenodd" clip-rule="evenodd" stroke-width="0.036" stroke="#000" stroke-miterlimit="10" id="imagebot_78" fill="#FFE42E" d="M 118.41 62.406 C 118.015 62.046 117.726 61.578 117.006 61.434 C 116.287 61.038 114.631 60.786 114.127 60.966 C 113.443 61.254 112.975 62.406 113.299 63.018 C 113.516 63.45 114.811 63.774 115.783 63.846 C 116.683 63.846 118.375 63.558 118.914 63.378 C 119.284 63.126 118.744 62.658 118.414 62.406 L 118.41 62.406 Z"/>
  <path transform="matrix(1 0 0 1 0.88 0.54)" fill-rule="evenodd" clip-rule="evenodd" stroke-width="0.036" stroke="#000" stroke-miterlimit="10" id="imagebot_79" d="M 73.881 69.318 C 73.305 69.354 72.405 69.534 71.757 70.146 C 70.929 70.758 69.561 71.694 69.453 72.666 C 69.381 73.494 70.245 74.898 71.073 75.078 C 71.721 75.042 72.729 74.25 73.521 73.278 C 74.133 72.198 75.177 70.182 75.285 69.462 C 75.321 68.814 74.385 69.138 73.881 69.318 Z"/>
  <path transform="matrix(1 0 0 1 0.88 0.54)" fill-rule="evenodd" clip-rule="evenodd" stroke-width="0.036" stroke="#000" stroke-miterlimit="10" id="imagebot_80" fill="#FFE42E" d="M 73.485 69.966 C 73.053 69.93 72.477 70.146 71.901 70.614 C 71.289 71.082 70.029 71.982 69.921 72.774 C 69.705 73.458 70.569 74.43 71.145 74.574 C 71.649 74.538 72.621 73.674 73.233 72.954 C 73.773 72.09 74.493 70.578 74.565 70.074 C 74.565 69.534 73.881 69.822 73.485 69.966 Z"/>
  <path transform="matrix(1 0 0 1 0.88 0.54)" fill-rule="evenodd" clip-rule="evenodd" stroke-width="0.036" stroke="#000" stroke-miterlimit="10" id="imagebot_81" d="M 54.981 76.05 C 54.585 75.438 54.081 74.898 53.325 74.43 C 52.389 73.818 50.949 73.134 50.121 73.35 C 49.329 73.494 48.357 75.15 48.573 75.834 C 48.645 76.482 50.013 77.022 51.165 77.31 C 52.245 77.526 54.729 77.598 55.413 77.382 C 55.953 77.094 55.305 76.518 54.981 76.05 Z"/>
  <path transform="matrix(1 0 0 1 0.88 0.54)" fill-rule="evenodd" clip-rule="evenodd" stroke-width="0.036" stroke="#000" stroke-miterlimit="10" id="imagebot_82" fill="#FFE42E" d="M 54.225 75.978 C 53.901 75.546 53.577 75.042 52.965 74.754 C 52.173 74.322 50.877 73.638 50.193 73.818 C 49.473 73.926 48.861 75.15 49.041 75.69 C 49.149 76.122 50.481 76.662 51.381 76.914 C 52.281 77.094 53.973 77.166 54.513 76.986 C 54.945 76.698 54.477 76.41 54.225 75.978 Z"/>
  <path transform="matrix(1 0 0 1 0.88 0.54)" fill-rule="evenodd" clip-rule="evenodd" stroke-width="0.036" stroke="#000" stroke-miterlimit="10" id="imagebot_83" d="M 30.105 66.726 C 30.645 67.014 31.329 67.23 32.301 67.374 C 33.237 67.374 35.001 67.266 35.649 66.762 C 36.189 66.078 36.297 64.314 35.829 63.846 C 35.325 63.45 33.849 63.306 32.805 63.81 C 31.653 64.17 29.493 65.142 29.097 65.754 C 28.593 66.222 29.529 66.366 30.105 66.726 Z"/>
  <path transform="matrix(1 0 0 1 0.88 0.54)" fill-rule="evenodd" clip-rule="evenodd" stroke-width="0.036" stroke="#000" stroke-miterlimit="10" id="imagebot_84" fill="#FFE42E" d="M 30.825 66.438 C 31.185 66.582 31.689 66.834 32.481 66.906 C 33.273 66.87 34.749 66.834 35.361 66.402 C 35.793 65.862 35.829 64.53 35.469 64.206 C 35.001 63.81 33.705 63.954 32.841 64.242 C 31.833 64.458 30.393 65.322 30.033 65.718 C 29.673 66.042 30.393 66.186 30.825 66.438 Z"/>
  <path transform="matrix(1 0 0 1 0.88 0.54)" fill-rule="evenodd" clip-rule="evenodd" stroke-width="0.036" stroke="#000" stroke-miterlimit="10" id="imagebot_85" d="M 25.497 51.39 C 25.209 50.742 25.029 50.022 24.417 49.374 C 23.733 48.654 22.437 47.394 21.645 47.394 C 20.781 47.358 19.449 48.546 19.449 49.302 C 19.413 49.95 20.421 50.814 21.501 51.498 C 22.545 52.146 24.669 52.686 25.497 52.83 C 26.001 52.722 25.677 51.966 25.497 51.39 Z"/>
  <path transform="matrix(1 0 0 1 0.88 0.54)" fill-rule="evenodd" clip-rule="evenodd" stroke-width="0.036" stroke="#000" stroke-miterlimit="10" id="imagebot_86" fill="#FFE42E" d="M 24.813 51.102 C 24.633 50.634 24.453 50.13 23.985 49.59 C 23.373 49.05 22.257 47.826 21.609 47.862 C 20.889 47.79 19.881 48.69 19.953 49.302 C 19.953 49.842 20.889 50.598 21.789 51.174 C 22.545 51.678 24.201 52.002 24.813 52.146 C 25.173 52.146 24.993 51.426 24.813 51.102 Z"/>
  <path transform="matrix(1 0 0 1 0.88 0.54)" fill-rule="evenodd" clip-rule="evenodd" stroke-width="0.036" stroke="#000" stroke-miterlimit="10" id="imagebot_87" d="M 24.597 33.498 C 24.273 34.002 24.093 34.758 24.201 35.766 C 24.345 36.63 24.381 38.466 25.137 39.042 C 25.749 39.474 27.549 39.438 28.053 38.934 C 28.341 38.322 28.305 36.99 27.801 35.91 C 27.333 34.758 25.965 32.742 25.497 32.382 C 24.957 31.914 24.705 32.886 24.597 33.498 Z"/>
  <path transform="matrix(1 0 0 1 0.88 0.54)" fill-rule="evenodd" clip-rule="evenodd" stroke-width="0.036" stroke="#000" stroke-miterlimit="10" id="imagebot_88" fill="#FFE42E" d="M 24.957 34.182 C 24.777 34.506 24.489 35.118 24.669 35.874 C 24.705 36.666 24.921 38.106 25.461 38.682 C 26.001 39.006 27.189 39.114 27.657 38.61 C 27.873 38.214 27.729 36.738 27.369 35.982 C 26.937 35.082 26.037 33.606 25.641 33.354 C 25.137 32.958 25.101 33.786 24.957 34.182 Z"/>
  <path transform="matrix(1 0 0 1 0.88 0.54)" fill-rule="evenodd" clip-rule="evenodd" stroke-width="0.036" stroke="#000" stroke-miterlimit="10" id="imagebot_89" d="M 38.313 28.458 C 38.133 29.034 38.097 29.79 38.349 30.726 C 38.637 31.59 39.105 33.246 39.897 33.75 C 40.617 34.11 42.309 33.606 42.741 33.066 C 43.101 32.346 42.453 31.194 41.913 30.186 C 41.265 29.178 39.429 27.486 38.925 27.198 C 38.277 26.946 38.349 27.738 38.313 28.458 Z"/>
  <path transform="matrix(1 0 0 1 0.88 0.54)" fill-rule="evenodd" clip-rule="evenodd" stroke-width="0.036" stroke="#000" stroke-miterlimit="10" id="imagebot_90" fill="#FFD028" d="M 38.781 29.034 C 38.601 29.43 38.565 30.006 38.817 30.762 C 39.033 31.554 39.537 32.886 40.185 33.39 C 40.761 33.678 42.021 33.318 42.309 32.85 C 42.453 32.31 41.949 31.05 41.481 30.33 C 40.905 29.466 39.717 28.35 39.285 28.098 C 38.817 27.846 38.781 28.53 38.781 29.034 Z"/>
  <path transform="matrix(1 0 0 1 0.88 0.54)" fill-rule="evenodd" clip-rule="evenodd" stroke-width="0.036" stroke="#000" stroke-miterlimit="10" id="imagebot_91" d="M 62.937 25.542 C 62.433 25.506 62.001 25.758 61.497 26.154 C 60.885 26.586 59.985 27.162 59.913 27.882 C 59.841 28.422 60.489 29.394 61.029 29.538 C 61.569 29.538 62.073 28.89 62.685 28.278 C 63.117 27.486 63.801 26.19 63.909 25.65 C 63.837 25.218 63.333 25.326 62.937 25.542 Z"/>
  <path transform="matrix(1 0 0 1 0.88 0.54)" fill-rule="evenodd" clip-rule="evenodd" stroke-width="0.036" stroke="#000" stroke-miterlimit="10" id="imagebot_92" fill="#FFE42E" d="M 62.685 26.01 C 62.289 25.974 61.965 26.118 61.569 26.442 C 61.101 26.766 60.273 27.414 60.201 27.954 C 60.021 28.386 60.633 29.07 61.065 29.178 C 61.533 29.178 61.965 28.53 62.505 28.062 C 62.901 27.486 63.297 26.406 63.405 26.082 C 63.297 25.65 63.009 25.902 62.685 26.01 Z"/>
  <path transform="matrix(1 0 0 1 0.88 0.54)" fill-rule="evenodd" clip-rule="evenodd" stroke-width="0.036" stroke="#000" stroke-miterlimit="10" id="imagebot_93" d="M 53.865 31.374 C 53.361 31.338 52.929 31.59 52.425 31.986 C 51.813 32.418 50.913 32.994 50.841 33.714 C 50.769 34.254 51.417 35.226 51.957 35.37 C 52.497 35.442 53.001 34.758 53.613 34.146 C 54.045 33.39 54.729 31.986 54.837 31.482 C 54.765 31.05 54.261 31.158 53.865 31.374 Z"/>
  <path transform="matrix(1 0 0 1 0.88 0.54)" fill-rule="evenodd" clip-rule="evenodd" stroke-width="0.036" stroke="#000" stroke-miterlimit="10" id="imagebot_94" fill="#FFE42E" d="M 53.613 31.842 C 53.217 31.806 52.893 31.95 52.497 32.274 C 52.029 32.598 51.201 33.246 51.129 33.786 C 50.949 34.182 51.561 34.974 51.993 35.046 C 52.461 35.082 52.893 34.326 53.433 33.894 C 53.829 33.318 54.225 32.238 54.333 31.914 C 54.225 31.482 53.937 31.734 53.613 31.842 Z"/>
  <path transform="matrix(1 0 0 1 0.88 0.54)" fill-rule="evenodd" clip-rule="evenodd" stroke-width="0.036" stroke="#000" stroke-miterlimit="10" id="imagebot_95" d="M 68.445 36.414 C 68.301 36.774 68.193 37.35 68.409 37.998 C 68.553 38.682 68.841 39.654 69.417 40.086 C 69.849 40.266 71.109 40.086 71.397 39.69 C 71.541 39.222 71.325 38.322 70.893 37.674 C 70.317 36.954 69.381 35.694 68.913 35.55 C 68.517 35.334 68.409 35.946 68.445 36.414 Z"/>
  <path transform="matrix(1 0 0 1 0.88 0.54)" fill-rule="evenodd" clip-rule="evenodd" stroke-width="0.036" stroke="#000" stroke-miterlimit="10" id="imagebot_96" fill="#FFE42E" d="M 68.769 36.81 C 68.733 37.062 68.445 37.458 68.733 37.998 C 68.805 38.538 69.201 39.474 69.633 39.834 C 69.993 39.978 70.857 39.87 71.109 39.51 C 71.073 39.078 71.037 38.322 70.605 37.782 C 70.173 37.17 69.345 36.306 69.093 36.162 C 68.805 35.91 68.697 36.45 68.769 36.81 Z"/>
  <path transform="matrix(1 0 0 1 0.88 0.54)" fill-rule="evenodd" clip-rule="evenodd" stroke-width="0.036" stroke="#000" stroke-miterlimit="10" id="imagebot_97" d="M 87.885 45.882 C 87.417 45.846 86.877 46.098 86.409 46.494 C 85.797 46.926 84.897 47.502 84.825 48.222 C 84.753 48.762 85.401 49.734 85.941 49.878 C 86.481 49.95 86.985 49.266 87.597 48.654 C 88.101 47.898 88.749 46.494 88.857 45.99 C 88.893 45.558 88.245 45.666 87.885 45.882 Z"/>
  <path transform="matrix(1 0 0 1 0.88 0.54)" fill-rule="evenodd" clip-rule="evenodd" stroke-width="0.036" stroke="#000" stroke-miterlimit="10" id="imagebot_98" fill="#FFE42E" d="M 87.597 46.35 C 87.273 46.314 86.913 46.458 86.517 46.782 C 86.085 47.106 85.113 47.754 85.113 48.294 C 84.933 48.726 85.545 49.41 85.977 49.518 C 86.445 49.518 86.877 48.87 87.417 48.402 C 87.813 47.826 88.209 46.746 88.317 46.422 C 88.209 45.99 87.921 46.242 87.597 46.35 Z"/>
  <path transform="matrix(1 0 0 1 0.88 0.54)" fill-rule="evenodd" clip-rule="evenodd" stroke-width="0.036" stroke="#000" stroke-miterlimit="10" id="imagebot_99" d="M 87.201 30.042 C 87.201 29.574 87.129 29.106 86.985 28.494 C 86.697 27.774 86.121 26.802 85.653 26.55 C 85.005 26.226 83.961 26.838 83.781 27.27 C 83.565 27.666 84.033 28.53 84.609 29.178 C 85.113 29.718 86.373 30.834 86.877 30.978 C 87.237 31.014 87.165 30.51 87.201 30.042 Z"/>
  <path transform="matrix(1 0 0 1 0.88 0.54)" fill-rule="evenodd" clip-rule="evenodd" stroke-width="0.036" stroke="#000" stroke-miterlimit="10" id="imagebot_100" fill="#FFD028" d="M 86.841 29.682 C 86.805 29.394 86.877 28.962 86.661 28.53 C 86.373 27.954 85.941 27.018 85.509 26.838 C 85.077 26.622 84.105 26.946 84.105 27.414 C 83.961 27.774 84.357 28.458 84.861 29.034 C 85.185 29.502 86.265 30.222 86.589 30.366 C 86.805 30.438 86.841 29.934 86.841 29.682 Z"/>
  <path transform="matrix(1 0 0 1 0.88 0.54)" fill-rule="evenodd" clip-rule="evenodd" stroke-width="0.036" stroke="#000" stroke-miterlimit="10" id="imagebot_101" d="M 76.905 23.598 C 77.013 23.166 77.337 22.698 77.337 22.05 C 77.265 21.258 77.301 20.214 76.905 19.746 C 76.437 19.314 75.177 19.278 74.925 19.638 C 74.565 19.926 74.601 20.898 74.889 21.726 C 75.069 22.518 75.897 23.886 76.257 24.282 C 76.509 24.57 76.725 23.922 76.905 23.598 Z"/>
  <path transform="matrix(1 0 0 1 0.88 0.54)" fill-rule="evenodd" clip-rule="evenodd" stroke-width="0.036" stroke="#000" stroke-miterlimit="10" id="imagebot_102" fill="#FFD028" d="M 76.725 23.094 C 76.797 22.734 76.941 22.482 77.013 21.942 C 76.977 21.366 76.905 20.286 76.653 19.962 C 76.221 19.53 75.393 19.638 75.141 19.89 C 74.853 20.106 74.997 21.078 75.177 21.69 C 75.357 22.266 75.897 23.382 76.221 23.634 C 76.365 23.742 76.581 23.418 76.725 23.094 Z"/>
  <path transform="matrix(1 0 0 1 0.88 0.54)" fill-rule="evenodd" clip-rule="evenodd" stroke-width="0.036" stroke="#000" stroke-miterlimit="10" id="imagebot_103" d="M 51.597 19.242 C 51.417 18.774 51.345 18.234 50.985 17.766 C 50.481 17.118 49.797 16.326 49.221 16.218 C 48.537 16.11 47.673 16.866 47.601 17.37 C 47.529 17.91 48.141 18.414 48.861 19.026 C 49.509 19.494 50.949 20.07 51.525 20.214 C 51.921 20.25 51.669 19.602 51.597 19.242 Z"/>
  <path transform="matrix(1 0 0 1 0.88 0.54)" fill-rule="evenodd" clip-rule="evenodd" stroke-width="0.036" stroke="#000" stroke-miterlimit="10" id="imagebot_104" fill="#FFD028" d="M 51.129 18.954 C 50.949 18.63 50.985 18.27 50.697 17.874 C 50.265 17.37 49.617 16.65 49.185 16.542 C 48.681 16.362 47.889 16.974 47.925 17.406 C 47.817 17.73 48.573 18.378 49.077 18.81 C 49.617 19.206 50.661 19.602 51.093 19.71 C 51.345 19.638 51.165 19.242 51.129 18.954 Z"/>
  <path transform="matrix(1 0 0 1 0.88 0.54)" fill-rule="evenodd" clip-rule="evenodd" stroke-width="0.036" stroke="#000" stroke-miterlimit="10" id="imagebot_105" d="M 124.46 21.798 C 124.423 22.158 124.532 22.662 124.927 23.31 C 125.216 23.85 125.937 24.786 126.548 25.002 C 127.159 24.966 128.06 24.498 128.277 24.03 C 128.312 23.49 127.808 22.77 127.197 22.266 C 126.476 21.618 125.109 20.97 124.64 20.862 C 124.14 20.79 124.35 21.294 124.46 21.798 Z"/>
  <path transform="matrix(1 0 0 1 0.88 0.54)" fill-rule="evenodd" clip-rule="evenodd" stroke-width="0.036" stroke="#000" stroke-miterlimit="10" id="imagebot_106" fill="#FFE42E" d="M 124.89 22.122 C 124.925 22.41 124.855 22.734 125.249 23.238 C 125.573 23.67 126.042 24.534 126.653 24.714 C 127.049 24.822 127.805 24.246 127.95 23.958 C 127.985 23.418 127.374 22.914 126.942 22.446 C 126.438 21.978 125.286 21.402 125.034 21.402 C 124.644 21.294 124.824 21.762 124.894 22.122 L 124.89 22.122 Z"/>
  <title>imagebot_1</title>
 </g>
 <metadata>image/svg+xmlOpenclipartFast Food, Lunch-Dinner, Hamburger2007-11-26T20:08:10This Clip Art is part of a fast food menu set. Search for "fastfood" to find all.http://openclipart.org/detail/9079/fast-food-lunch-dinner-hamburger-by-gerald_gGerald_Gbeefbunburgercheeseclip artclipartcolouring bookfastfoodfoodhamburgerlunchmenu</metadata>
</svg>